<svg width="71" height="33" viewBox="0 0 71 33" fill="none" xmlns="http://www.w3.org/2000/svg">
<path d="M10.216 22.22C10.216 24.212 9.856 25.856 9.136 27.152C8.44 28.448 7.504 29.456 6.328 30.176C5.176 30.92 3.796 31.556 2.188 32.084L0.604004 27.908C1.66 27.5 2.452 27.032 2.98 26.504C3.508 25.976 3.856 25.364 4.024 24.668C4.216 23.972 4.312 23.084 4.312 22.004V1.052H10.216V22.22Z" fill="#141414"/>
<path d="M40.6498 1.052L33.7018 26H26.3578L19.1578 1.052H25.3858L30.1378 21.392L34.6018 1.052H40.6498Z" fill="#141414"/>
<path d="M59.6013 0.440002C63.1533 0.440002 65.9133 1.58 67.8813 3.86C69.8733 6.14 70.8693 9.356 70.8693 13.508C70.8693 16.22 70.4133 18.56 69.5013 20.528C68.6133 22.496 67.3173 24.008 65.6133 25.064C63.9333 26.096 61.9293 26.612 59.6013 26.612C57.2733 26.612 55.2693 26.096 53.5893 25.064C51.9093 24.032 50.6133 22.544 49.7013 20.6C48.8133 18.632 48.3693 16.268 48.3693 13.508C48.3693 10.82 48.8133 8.492 49.7013 6.524C50.6133 4.556 51.9093 3.056 53.5893 2.024C55.2693 0.968003 57.2733 0.440002 59.6013 0.440002ZM59.6013 4.76C57.8973 4.76 56.6253 5.456 55.7853 6.848C54.9693 8.216 54.5613 10.436 54.5613 13.508C54.5613 16.58 54.9813 18.812 55.8213 20.204C56.6613 21.596 57.9213 22.292 59.6013 22.292C61.3293 22.292 62.6013 21.608 63.4173 20.24C64.2573 18.848 64.6773 16.604 64.6773 13.508C64.6773 10.412 64.2573 8.18 63.4173 6.812C62.5773 5.444 61.3053 4.76 59.6013 4.76Z" fill="#141414"/>
</svg>
